<?xml version="1.0" standalone="no"?>
<!DOCTYPE svg PUBLIC "-//W3C//DTD SVG 20010904//EN"
 "http://www.w3.org/TR/2001/REC-SVG-20010904/DTD/svg10.dtd">
<svg version="1.0" xmlns="http://www.w3.org/2000/svg"
 width="600.000000pt" height="600.000000pt" viewBox="0 0 600.000000 600.000000"
 preserveAspectRatio="xMidYMid meet">
<metadata>
Created by potrace 1.11, written by Peter Selinger 2001-2013
</metadata>
<g transform="translate(0.000000,600.000000) scale(0.100000,-0.100000)"
fill="#000000" stroke="none">
<path d="M2835 4784 c-148 -20 -194 -29 -293 -55 -307 -81 -582 -238 -807
-464 -269 -269 -436 -597 -506 -995 -18 -99 -18 -441 0 -540 70 -398 237 -726
506 -995 269 -269 597 -436 995 -506 99 -18 441 -18 540 0 398 70 726 237 995
506 268 267 438 602 507 995 17 99 17 441 0 540 -20 111 -68 290 -102 375
-237 596 -736 1004 -1371 1121 -80 15 -399 27 -464 18z m295 -74 c412 -36 767
-195 1057 -473 703 -675 703 -1799 0 -2474 -664 -637 -1710 -637 -2374 0 -703
675 -703 1799 0 2474 283 272 647 437 1037 472 136 12 152 12 280 1z"/>
<path d="M1943 3332 c-60 -22 -132 -77 -163 -127 -30 -49 -30 -123 0 -147 12
-10 33 -18 45 -18 21 0 23 4 23 59 0 68 21 120 64 156 24 20 59 34 58 23 0 -2
-43 -131 -94 -288 l-94 -285 35 -3 c19 -2 37 -2 39 0 2 3 26 76 53 164 l50
159 0 -163 1 -163 67 3 67 3 70 182 c39 100 72 180 74 178 3 -3 -36 -189 -72
-347 -4 -16 4 -18 63 -18 l67 0 63 308 c35 169 66 313 69 320 3 10 -12 12 -69
10 l-73 -3 -91 -237 -90 -237 -5 242 -5 242 -50 2 c-29 2 -72 -5 -102 -15z"/>
<path d="M2814 3325 c-68 -34 -99 -77 -99 -137 0 -51 0 -51 102 -167 68 -77
89 -128 78 -191 -16 -95 -124 -119 -163 -37 -12 24 -11 33 5 65 14 28 27 39
56 47 36 10 37 11 21 33 -12 18 -25 22 -65 22 -42 0 -55 -5 -85 -33 -68 -62
-52 -171 31 -212 58 -28 184 -27 241 3 82 42 121 117 110 205 -10 69 -26 96
-101 169 -74 71 -99 123 -83 170 15 42 90 56 115 22 19 -26 16 -58 -8 -88
l-21 -26 23 -9 c32 -11 56 -3 79 27 38 48 15 131 -43 152 -55 19 -139 12 -193
-15z"/>
<path d="M3270 3141 c-53 -11 -96 -37 -125 -76 -61 -80 -85 -255 -45 -321 42
-67 151 -71 221 -7 48 44 65 75 82 150 11 47 19 61 44 76 l31 18 -29 -133
c-16 -73 -29 -137 -29 -141 0 -4 30 -7 67 -5 l67 3 35 168 c23 107 41 171 51
177 26 17 48 11 54 -15 5 -19 13 -25 34 -25 38 0 60 19 68 56 5 26 1 35 -22
53 -30 24 -69 22 -113 -6 -23 -15 -24 -14 -18 6 5 20 1 21 -63 21 l-69 0 -11
-55 c-7 -35 -18 -59 -30 -65 -26 -14 -50 -13 -50 3 0 6 -5 29 -11 50 -15 57
-68 83 -139 68z m70 -81 c0 -10 -7 -23 -15 -30 -8 -7 -15 -26 -15 -42 0 -16 6
-31 15 -34 8 -4 15 -18 15 -33 0 -38 -45 -127 -67 -133 -30 -8 -62 9 -69 36
-9 36 21 170 47 212 32 52 89 67 89 24z"/>
<path d="M3970 3141 c-118 -25 -190 -138 -190 -298 0 -114 53 -164 158 -148
38 6 56 16 93 53 44 45 61 81 84 182 4 18 20 32 57 50 50 24 79 53 66 65 -3 4
-24 -3 -47 -14 -46 -24 -71 -27 -71 -8 0 6 -5 29 -11 50 -15 57 -68 83 -139
68z m70 -81 c0 -10 -7 -23 -15 -30 -8 -7 -15 -26 -15 -42 0 -16 6 -31 15 -34
20 -8 18 -48 -3 -104 -27 -69 -90 -87 -114 -34 -15 32 12 171 42 220 33 52 90
67 90 24z"/>
</g>
</svg>
